<mxfile host="app.diagrams.net" agent="Mozilla/5.0 (Windows NT 10.0; Win64; x64) AppleWebKit/537.36 (KHTML, like Gecko) Chrome/133.0.0.0 Safari/537.36" version="26.1.0">
  <diagram id="yfzR8wTpgSvEAIEDc1dZ" name="Page-1">
    <mxGraphModel dx="3476" dy="1593" grid="1" gridSize="10" guides="1" tooltips="1" connect="1" arrows="1" fold="1" page="0" pageScale="1" pageWidth="827" pageHeight="1169" background="none" math="0" shadow="0">
      <root>
        <mxCell id="0" />
        <mxCell id="1" parent="0" />
        <mxCell id="node7" value="&lt;p style=&quot;margin: 4px 0px 0px; text-align: center;&quot;&gt;&lt;b&gt;ComplexTask&lt;/b&gt;&lt;/p&gt;&lt;hr size=&quot;1&quot;&gt;&lt;p style=&quot;margin: 0px 0px 0px 4px; line-height: 1.6;&quot;&gt;&lt;/p&gt;&lt;p style=&quot;margin: 0px 0px 0px 4px; line-height: 1.6;&quot;&gt;- startHour: int&lt;br&gt;- serialVersionUID: long&lt;br&gt;- subTasks: List&amp;lt;Task&amp;gt;&lt;br&gt;- endHour: int&lt;/p&gt;&lt;hr size=&quot;1&quot;&gt;&lt;p style=&quot;margin: 0px 0px 0px 4px; line-height: 1.6;&quot;&gt;+ ComplexTask(int, String, int, int):&lt;/p&gt;&lt;p style=&quot;margin: 0px 0px 0px 4px; line-height: 1.6;&quot;&gt;+ estimateDuration(): int&lt;br&gt;+ getStartHour(): int&lt;br&gt;+ DeleteTask(Task): void&lt;br&gt;+ getEndHour(): int&lt;br&gt;+ addTask(Task): void&lt;br&gt;+ getSubTasks(): List&amp;lt;Task&amp;gt;&lt;/p&gt;&lt;p style=&quot;margin:0px;margin-top:4px;text-align:center;&quot;&gt;&lt;/p&gt;" style="verticalAlign=top;align=left;overflow=fill;fontSize=14;fontFamily=Helvetica;html=1;rounded=0;shadow=0;comic=0;labelBackgroundColor=none;strokeWidth=1;" parent="1" vertex="1">
          <mxGeometry x="-560" y="-166" width="231" height="296" as="geometry" />
        </mxCell>
        <mxCell id="node1" value="&lt;p style=&quot;margin: 4px 0px 0px; text-align: center;&quot;&gt;&lt;b&gt;Controller&lt;/b&gt;&lt;/p&gt;&lt;hr size=&quot;1&quot;&gt;&lt;p style=&quot;margin: 0px 0px 0px 4px; line-height: 1.6;&quot;&gt;- view: View&lt;br&gt;- taskManagement: TaskManagement&lt;br&gt;- utility: Utility&lt;/p&gt;&lt;hr size=&quot;1&quot;&gt;&lt;p style=&quot;margin: 0px 0px 0px 4px; line-height: 1.6;&quot;&gt;- updateExistingTask(): void&lt;/p&gt;&lt;p style=&quot;margin: 0px 0px 0px 4px; line-height: 1.6;&quot;&gt;+ Controller(View, TaskManagement, Utility):&lt;/p&gt;&lt;p style=&quot;margin:0px;margin-top:4px;text-align:center;&quot;&gt;&lt;/p&gt;" style="verticalAlign=top;align=left;overflow=fill;fontSize=14;fontFamily=Helvetica;html=1;rounded=0;shadow=0;comic=0;labelBackgroundColor=none;strokeWidth=1;" parent="1" vertex="1">
          <mxGeometry x="-450" y="450" width="290" height="180" as="geometry" />
        </mxCell>
        <mxCell id="node6" value="&lt;p style=&quot;margin: 4px 0px 0px; text-align: center;&quot;&gt;&lt;b&gt;Employee&lt;/b&gt;&lt;/p&gt;&lt;hr size=&quot;1&quot;&gt;&lt;p style=&quot;margin: 0px 0px 0px 4px; line-height: 1.6;&quot;&gt;&lt;span style=&quot;background-color: transparent; color: light-dark(rgb(0, 0, 0), rgb(255, 255, 255));&quot;&gt;- idEmployee: int&lt;/span&gt;&lt;/p&gt;&lt;p style=&quot;margin: 0px 0px 0px 4px; line-height: 1.6;&quot;&gt;- name: String&lt;br&gt;- serialVersionUID: long&lt;/p&gt;&lt;hr size=&quot;1&quot;&gt;&lt;p style=&quot;margin: 0px 0px 0px 4px; line-height: 1.6;&quot;&gt;+ Employee(int, String):&lt;/p&gt;&lt;p style=&quot;margin: 0px 0px 0px 4px; line-height: 1.6;&quot;&gt;+ getIdEmployee(): int&lt;br&gt;+ getName(): String&lt;/p&gt;&lt;p style=&quot;margin:0px;margin-top:4px;text-align:center;&quot;&gt;&lt;/p&gt;" style="verticalAlign=top;align=left;overflow=fill;fontSize=14;fontFamily=Helvetica;html=1;rounded=0;shadow=0;comic=0;labelBackgroundColor=none;strokeWidth=1;" parent="1" vertex="1">
          <mxGeometry x="-1228" y="-320" width="188" height="190" as="geometry" />
        </mxCell>
        <mxCell id="node0" value="&lt;p style=&quot;margin: 4px 0px 0px; text-align: center;&quot;&gt;&lt;b&gt;FinalApp&lt;/b&gt;&lt;/p&gt;&lt;hr size=&quot;1&quot;&gt;&lt;p style=&quot;margin: 0px 0px 0px 4px; line-height: 1.6;&quot;&gt;+ FinalApp():&lt;/p&gt;&lt;hr size=&quot;1&quot;&gt;&lt;p style=&quot;margin: 0px 0px 0px 4px; line-height: 1.6;&quot;&gt;+ main(String[]): void&lt;/p&gt;&lt;p style=&quot;margin:0px;margin-top:4px;text-align:center;&quot;&gt;&lt;/p&gt;" style="verticalAlign=top;align=left;overflow=fill;fontSize=14;fontFamily=Helvetica;html=1;rounded=0;shadow=0;comic=0;labelBackgroundColor=none;strokeWidth=1;" parent="1" vertex="1">
          <mxGeometry x="-1302" y="710" width="174" height="100" as="geometry" />
        </mxCell>
        <mxCell id="node5" value="&lt;p style=&quot;margin: 4px 0px 0px; text-align: center;&quot;&gt;&lt;b&gt;SimpleTask&lt;/b&gt;&lt;/p&gt;&lt;hr size=&quot;1&quot;&gt;&lt;p style=&quot;margin: 0px 0px 0px 4px; line-height: 1.6;&quot;&gt;&lt;/p&gt;&lt;p style=&quot;margin: 0px 0px 0px 4px; line-height: 1.6;&quot;&gt;- startHour: int&lt;br&gt;- serialVersionUID: long&lt;br&gt;- endHour: int&lt;/p&gt;&lt;hr size=&quot;1&quot;&gt;&lt;p style=&quot;margin: 0px 0px 0px 4px; line-height: 1.6;&quot;&gt;+ SimpleTask(int, String, int, int):&lt;/p&gt;&lt;p style=&quot;margin: 0px 0px 0px 4px; line-height: 1.6;&quot;&gt;+ getStartHour(): int&lt;br&gt;+ getEndHour(): int&lt;br&gt;+ estimateDuration(): int&lt;/p&gt;&lt;p style=&quot;margin:0px;margin-top:4px;text-align:center;&quot;&gt;&lt;/p&gt;" style="verticalAlign=top;align=left;overflow=fill;fontSize=14;fontFamily=Helvetica;html=1;rounded=0;shadow=0;comic=0;labelBackgroundColor=none;strokeWidth=1;" parent="1" vertex="1">
          <mxGeometry x="-560" y="-430" width="207" height="210" as="geometry" />
        </mxCell>
        <mxCell id="node4" value="&lt;p style=&quot;margin: 4px 0px 0px; text-align: center;&quot;&gt;&lt;b&gt;Task&lt;/b&gt;&lt;/p&gt;&lt;hr size=&quot;1&quot;&gt;&lt;p style=&quot;margin: 0px 0px 0px 4px; line-height: 1.6;&quot;&gt;&lt;/p&gt;&lt;p style=&quot;margin: 0px 0px 0px 4px; line-height: 1.6;&quot;&gt;- serialVersionUID: long&lt;br&gt;- statusTask: String&lt;br&gt;- idTask: int&lt;/p&gt;&lt;hr size=&quot;1&quot;&gt;&lt;p style=&quot;margin: 0px 0px 0px 4px; line-height: 1.6;&quot;&gt;+ Task(int, String):&lt;/p&gt;&lt;p style=&quot;margin: 0px 0px 0px 4px; line-height: 1.6;&quot;&gt;+ estimateDuration(): int&lt;br&gt;+ getIdTask(): int&lt;br&gt;+ setStatusTask(String): void&lt;br&gt;+ getStatusTask(): String&lt;/p&gt;&lt;p style=&quot;margin:0px;margin-top:4px;text-align:center;&quot;&gt;&lt;/p&gt;" style="verticalAlign=top;align=left;overflow=fill;fontSize=14;fontFamily=Helvetica;html=1;rounded=0;shadow=0;comic=0;labelBackgroundColor=none;strokeWidth=1;" parent="1" vertex="1">
          <mxGeometry x="-930" y="-320" width="180" height="240" as="geometry" />
        </mxCell>
        <mxCell id="node8" value="&lt;p style=&quot;margin: 4px 0px 0px; text-align: center;&quot;&gt;&lt;b&gt;TaskManagement&lt;/b&gt;&lt;/p&gt;&lt;hr size=&quot;1&quot;&gt;&lt;p style=&quot;margin: 0px 0px 0px 4px; line-height: 1.6;&quot;&gt;- tasks: List&amp;lt;Task&amp;gt;&lt;br&gt;- map: Map&amp;lt;Employee, List&amp;lt;Task&amp;gt;&amp;gt;&lt;/p&gt;&lt;hr size=&quot;1&quot;&gt;&lt;p style=&quot;margin: 0px 0px 0px 4px; line-height: 1.6;&quot;&gt;&lt;/p&gt;&lt;p style=&quot;margin: 0px 0px 0px 4px; line-height: 1.6;&quot;&gt;+ TaskManagement():&lt;/p&gt;&lt;p style=&quot;margin: 0px 0px 0px 4px; line-height: 1.6;&quot;&gt;+ serializeData(String): void&lt;br&gt;+ getTaskById(int): Task&lt;br&gt;- assignSubTasksToEmployee(Employee, ComplexTask): void&lt;br&gt;+ getTasks(): List&amp;lt;Task&amp;gt;&lt;br&gt;+ addTask(Task): void&lt;br&gt;+ calculateEmployeeWorkDuration(int): int&lt;br&gt;+ addEmployee(int, String): void&lt;br&gt;+ assignTaskToEmployee(int, Task): void&lt;br&gt;+ getEmployees(): ArrayList&amp;lt;Employee&amp;gt;&lt;br&gt;+ deserializeData(String): void&lt;br&gt;+ getTasksByEmployee(int): List&amp;lt;Task&amp;gt;&lt;br&gt;+ modifyTaskStatus(int, int, String): void&lt;/p&gt;&lt;p style=&quot;margin:0px;margin-top:4px;text-align:center;&quot;&gt;&lt;/p&gt;" style="verticalAlign=top;align=left;overflow=fill;fontSize=14;fontFamily=Helvetica;html=1;rounded=0;shadow=0;comic=0;labelBackgroundColor=none;strokeWidth=1;" parent="1" vertex="1">
          <mxGeometry x="-1410" y="60" width="390" height="400" as="geometry" />
        </mxCell>
        <mxCell id="node2" value="&lt;p style=&quot;margin: 4px 0px 0px; text-align: center;&quot;&gt;&lt;b&gt;Utility&lt;/b&gt;&lt;/p&gt;&lt;p style=&quot;margin: 0px 0px 0px 4px; line-height: 1.6;&quot;&gt;&lt;/p&gt;&lt;p style=&quot;margin: 0px 0px 0px 4px; line-height: 1.6;&quot;&gt;- taskManagement: TaskManagement&lt;/p&gt;&lt;hr size=&quot;1&quot;&gt;&lt;p style=&quot;margin: 0px 0px 0px 4px; line-height: 1.6;&quot;&gt;+ getTaskStatus(): Map&amp;lt;String, Map&amp;lt;String, Integer&amp;gt;&amp;gt;&lt;br&gt;+ ascEmployeeWorkedHours(): String&lt;/p&gt;&lt;p style=&quot;margin: 0px 0px 0px 4px; line-height: 1.6;&quot;&gt;+ Utility(TaskManagement):&lt;/p&gt;&lt;p style=&quot;margin:0px;margin-top:4px;text-align:center;&quot;&gt;&lt;/p&gt;" style="verticalAlign=top;align=left;overflow=fill;fontSize=14;fontFamily=Helvetica;html=1;rounded=0;shadow=0;comic=0;labelBackgroundColor=none;strokeWidth=1;" parent="1" vertex="1">
          <mxGeometry x="-980" y="460" width="344" height="129" as="geometry" />
        </mxCell>
        <mxCell id="node3" value="&lt;p style=&quot;margin: 4px 0px 0px; text-align: center;&quot;&gt;&lt;b&gt;View&lt;/b&gt;&lt;/p&gt;&lt;hr size=&quot;1&quot;&gt;&lt;p style=&quot;margin: 0px 0px 0px 4px; line-height: 1.6;&quot;&gt;+ View():&lt;/p&gt;&lt;hr size=&quot;1&quot;&gt;&lt;p style=&quot;margin: 0px 0px 0px 4px; line-height: 1.6;&quot;&gt;- employeeIdField: JTextField&lt;br&gt;- existingTaskTypeComboBox: JComboBox&amp;lt;String&amp;gt;&lt;br&gt;- addEmployeeButton: JButton&lt;br&gt;- modifyTaskStatusComboBox: JComboBox&amp;lt;String&amp;gt;&lt;br&gt;- deserializeButton: JButton&lt;br&gt;- assignTaskIdField: JTextField&lt;br&gt;- assignTaskButton: JButton&lt;br&gt;- statisticsArea: JTextArea&lt;br&gt;- viewEmployeesButton: JButton&lt;br&gt;- modifyTaskIdField: JTextField&lt;br&gt;- displayEmployeesArea: JTextArea&lt;br&gt;- taskStatusComboBox: JComboBox&amp;lt;String&amp;gt;&lt;br&gt;- modifyEmployeeIdField: JTextField&lt;br&gt;- taskStartHourField: JTextField&lt;br&gt;- tabbedPane: JTabbedPane&lt;br&gt;- taskEndHourField: JTextField&lt;br&gt;- assignEmployeeIdField: JTextField&lt;br&gt;- serializeButton: JButton&lt;br&gt;- employeeNameField: JTextField&lt;br&gt;- taskTypeComboBox: JComboBox&amp;lt;String&amp;gt;&lt;br&gt;- viewStatisticsButton: JButton&lt;br&gt;- addTaskButton: JButton&lt;br&gt;- taskIdField: JTextField&lt;br&gt;- filterButton: JButton&lt;br&gt;- frame: JFrame&lt;br&gt;- filteredArea: JTextArea&lt;br&gt;- modifyTaskStatusButton: JButton&lt;/p&gt;&lt;hr size=&quot;1&quot;&gt;&lt;p style=&quot;margin: 0px 0px 0px 4px; line-height: 1.6;&quot;&gt;+ setDisplayStatistics(String): void&lt;br&gt;- createAddTaskPanel(): JPanel&lt;br&gt;+ getEmployeeName(): String&lt;br&gt;+ viewStatisticsListener(ActionListener): void&lt;br&gt;- createAddEmployeePanel(): JPanel&lt;br&gt;- setLook(): void&lt;br&gt;+ getTaskId(): int&lt;br&gt;+ modifyTaskStatusListener(ActionListener): void&lt;br&gt;+ getSelectedTask(): String&lt;br&gt;+ setExistingTasks(List&amp;lt;String&amp;gt;): void&lt;br&gt;- createModifyTaskPanel(): JPanel&lt;br&gt;+ getTaskStartHour(): int&lt;br&gt;+ addSerializeListener(ActionListener): void&lt;br&gt;+ addComplexTaskListener(ActionListener): void&lt;br&gt;+ setDisplayEmployees(String): void&lt;br&gt;+ displayEmployees(ActionListener): void&lt;br&gt;+ getEmployeeId(): int&lt;br&gt;- createViewEmployeesPanel(): JPanel&lt;br&gt;+ getTaskEndHour(): int&lt;br&gt;+ assignTaskListener(ActionListener): void&lt;br&gt;+ addEmployeeListener(ActionListener): void&lt;br&gt;- createSerializePanel(): JPanel&lt;br&gt;+ addDeserializeListener(ActionListener): void&lt;br&gt;+ getTaskStatus(): String&lt;br&gt;+ getTaskType(): String&lt;br&gt;- createViewStatisticsPanel(): JPanel&lt;br&gt;+ setDisplayFiltered(String): void&lt;br&gt;+ setDisplayArea(String): void&lt;br&gt;- createFilterPanel(): JPanel&lt;br&gt;- createAssignTaskPanel(): JPanel&lt;br&gt;+ viewEmployeesListener(ActionListener): void&lt;br&gt;+ addSimpleTaskListener(ActionListener): void&lt;/p&gt;&lt;p style=&quot;margin:0px;margin-top:4px;text-align:center;&quot;&gt;&lt;/p&gt;" style="verticalAlign=top;align=left;overflow=fill;fontSize=14;fontFamily=Helvetica;html=1;rounded=0;shadow=0;comic=0;labelBackgroundColor=none;strokeWidth=1;" parent="1" vertex="1">
          <mxGeometry x="-1800" y="60" width="330" height="1415" as="geometry" />
        </mxCell>
        <mxCell id="xCNcYc3M7SHky_gv-s5D-1" value="&amp;lt;&amp;lt;Abstract&amp;gt;&amp;gt;" style="text;html=1;align=center;verticalAlign=middle;whiteSpace=wrap;rounded=0;" vertex="1" parent="1">
          <mxGeometry x="-870" y="-350" width="60" height="30" as="geometry" />
        </mxCell>
        <mxCell id="xCNcYc3M7SHky_gv-s5D-2" value="Extends" style="endArrow=block;endSize=16;endFill=0;html=1;rounded=0;fontSize=12;curved=1;exitX=0;exitY=0.5;exitDx=0;exitDy=0;entryX=1;entryY=0;entryDx=0;entryDy=0;" edge="1" parent="1" source="node5" target="node4">
          <mxGeometry width="160" relative="1" as="geometry">
            <mxPoint x="-609" y="-10" as="sourcePoint" />
            <mxPoint x="-820" y="-2" as="targetPoint" />
          </mxGeometry>
        </mxCell>
        <mxCell id="xCNcYc3M7SHky_gv-s5D-4" value="Extends" style="endArrow=block;endSize=16;endFill=0;html=1;rounded=0;fontSize=12;curved=1;exitX=0;exitY=0.25;exitDx=0;exitDy=0;entryX=1;entryY=0.5;entryDx=0;entryDy=0;" edge="1" parent="1" source="node7" target="node4">
          <mxGeometry width="160" relative="1" as="geometry">
            <mxPoint x="-990" y="150" as="sourcePoint" />
            <mxPoint x="-830" y="150" as="targetPoint" />
          </mxGeometry>
        </mxCell>
        <mxCell id="xCNcYc3M7SHky_gv-s5D-5" style="edgeStyle=none;curved=1;rounded=0;orthogonalLoop=1;jettySize=auto;html=1;exitX=0.25;exitY=0;exitDx=0;exitDy=0;fontSize=12;startSize=8;endSize=8;" edge="1" parent="1" source="node5" target="node5">
          <mxGeometry relative="1" as="geometry" />
        </mxCell>
        <mxCell id="xCNcYc3M7SHky_gv-s5D-19" value="" style="endArrow=diamondThin;endFill=0;endSize=24;html=1;rounded=0;fontSize=12;curved=1;entryX=0.25;entryY=0;entryDx=0;entryDy=0;exitX=0;exitY=1;exitDx=0;exitDy=0;" edge="1" parent="1" source="node6" target="node8">
          <mxGeometry width="160" relative="1" as="geometry">
            <mxPoint x="-1440" y="10" as="sourcePoint" />
            <mxPoint x="-1280" y="10" as="targetPoint" />
          </mxGeometry>
        </mxCell>
        <mxCell id="xCNcYc3M7SHky_gv-s5D-20" value="" style="endArrow=diamondThin;endFill=0;endSize=24;html=1;rounded=0;fontSize=12;curved=1;entryX=1;entryY=0;entryDx=0;entryDy=0;exitX=0;exitY=1;exitDx=0;exitDy=0;" edge="1" parent="1" source="node4" target="node8">
          <mxGeometry width="160" relative="1" as="geometry">
            <mxPoint x="-918.5" y="-80" as="sourcePoint" />
            <mxPoint x="-1160" y="50" as="targetPoint" />
          </mxGeometry>
        </mxCell>
        <mxCell id="xCNcYc3M7SHky_gv-s5D-21" value="" style="endArrow=diamondThin;endFill=0;endSize=24;html=1;rounded=0;fontSize=12;curved=1;exitX=1;exitY=1;exitDx=0;exitDy=0;entryX=0;entryY=0.5;entryDx=0;entryDy=0;" edge="1" parent="1" source="node4" target="node7">
          <mxGeometry width="160" relative="1" as="geometry">
            <mxPoint x="-800" y="30" as="sourcePoint" />
            <mxPoint x="-640" y="30" as="targetPoint" />
          </mxGeometry>
        </mxCell>
        <mxCell id="xCNcYc3M7SHky_gv-s5D-22" value="Use" style="endArrow=open;endSize=12;dashed=1;html=1;rounded=0;fontSize=12;curved=1;exitX=0.5;exitY=0;exitDx=0;exitDy=0;entryX=0.5;entryY=1;entryDx=0;entryDy=0;" edge="1" parent="1" source="node8" target="node6">
          <mxGeometry width="160" relative="1" as="geometry">
            <mxPoint x="-1240" y="10" as="sourcePoint" />
            <mxPoint x="-1080" y="10" as="targetPoint" />
          </mxGeometry>
        </mxCell>
        <mxCell id="xCNcYc3M7SHky_gv-s5D-23" value="Use" style="endArrow=open;endSize=12;dashed=1;html=1;rounded=0;fontSize=12;curved=1;exitX=0.75;exitY=0;exitDx=0;exitDy=0;entryX=0;entryY=0.75;entryDx=0;entryDy=0;" edge="1" parent="1" source="node8" target="node4">
          <mxGeometry width="160" relative="1" as="geometry">
            <mxPoint x="-1147" y="60" as="sourcePoint" />
            <mxPoint x="-1040" y="-120" as="targetPoint" />
          </mxGeometry>
        </mxCell>
        <mxCell id="xCNcYc3M7SHky_gv-s5D-24" value="Use" style="endArrow=open;endSize=12;dashed=1;html=1;rounded=0;fontSize=12;curved=1;exitX=1;exitY=0.25;exitDx=0;exitDy=0;entryX=0;entryY=0.75;entryDx=0;entryDy=0;" edge="1" parent="1" source="node8" target="node7">
          <mxGeometry width="160" relative="1" as="geometry">
            <mxPoint x="-900" y="140" as="sourcePoint" />
            <mxPoint x="-740" y="140" as="targetPoint" />
          </mxGeometry>
        </mxCell>
        <mxCell id="xCNcYc3M7SHky_gv-s5D-25" value="" style="line;strokeWidth=1;fillColor=none;align=left;verticalAlign=middle;spacingTop=-1;spacingLeft=3;spacingRight=3;rotatable=0;labelPosition=right;points=[];portConstraint=eastwest;strokeColor=inherit;" vertex="1" parent="1">
          <mxGeometry x="-980" y="480" width="344" height="8" as="geometry" />
        </mxCell>
        <mxCell id="xCNcYc3M7SHky_gv-s5D-26" value="" style="endArrow=diamondThin;endFill=0;endSize=24;html=1;rounded=0;fontSize=12;curved=1;entryX=0;entryY=0;entryDx=0;entryDy=0;exitX=0.75;exitY=1;exitDx=0;exitDy=0;" edge="1" parent="1" source="node8" target="node2">
          <mxGeometry width="160" relative="1" as="geometry">
            <mxPoint x="-920" y="510" as="sourcePoint" />
            <mxPoint x="-760" y="510" as="targetPoint" />
          </mxGeometry>
        </mxCell>
        <mxCell id="xCNcYc3M7SHky_gv-s5D-27" value="Use" style="endArrow=open;endSize=12;dashed=1;html=1;rounded=0;fontSize=12;curved=1;exitX=1;exitY=0;exitDx=0;exitDy=0;entryX=1;entryY=1;entryDx=0;entryDy=0;" edge="1" parent="1" source="node2" target="node4">
          <mxGeometry width="160" relative="1" as="geometry">
            <mxPoint x="-750" y="440" as="sourcePoint" />
            <mxPoint x="-590" y="440" as="targetPoint" />
          </mxGeometry>
        </mxCell>
        <mxCell id="xCNcYc3M7SHky_gv-s5D-28" value="Use" style="endArrow=open;endSize=12;dashed=1;html=1;rounded=0;fontSize=12;curved=1;entryX=1;entryY=1;entryDx=0;entryDy=0;exitX=0.75;exitY=0;exitDx=0;exitDy=0;" edge="1" parent="1" source="node2" target="node6">
          <mxGeometry width="160" relative="1" as="geometry">
            <mxPoint x="-880" y="450" as="sourcePoint" />
            <mxPoint x="-720" y="450" as="targetPoint" />
          </mxGeometry>
        </mxCell>
        <mxCell id="xCNcYc3M7SHky_gv-s5D-30" value="" style="endArrow=diamondThin;endFill=0;endSize=24;html=1;rounded=0;fontSize=12;curved=1;entryX=0;entryY=0.25;entryDx=0;entryDy=0;exitX=1;exitY=0.5;exitDx=0;exitDy=0;" edge="1" parent="1" source="node3" target="node0">
          <mxGeometry width="160" relative="1" as="geometry">
            <mxPoint x="-1430" y="670" as="sourcePoint" />
            <mxPoint x="-1270" y="670" as="targetPoint" />
          </mxGeometry>
        </mxCell>
        <mxCell id="xCNcYc3M7SHky_gv-s5D-31" value="" style="endArrow=diamondThin;endFill=0;endSize=24;html=1;rounded=0;fontSize=12;curved=1;entryX=0.25;entryY=0;entryDx=0;entryDy=0;exitX=0.25;exitY=1;exitDx=0;exitDy=0;" edge="1" parent="1" source="node8" target="node0">
          <mxGeometry width="160" relative="1" as="geometry">
            <mxPoint x="-1320" y="590" as="sourcePoint" />
            <mxPoint x="-1160" y="590" as="targetPoint" />
          </mxGeometry>
        </mxCell>
        <mxCell id="xCNcYc3M7SHky_gv-s5D-32" value="" style="endArrow=diamondThin;endFill=0;endSize=24;html=1;rounded=0;fontSize=12;curved=1;entryX=1;entryY=0;entryDx=0;entryDy=0;exitX=0;exitY=1;exitDx=0;exitDy=0;" edge="1" parent="1" source="node2" target="node0">
          <mxGeometry width="160" relative="1" as="geometry">
            <mxPoint x="-1200" y="640" as="sourcePoint" />
            <mxPoint x="-1040" y="640" as="targetPoint" />
          </mxGeometry>
        </mxCell>
        <mxCell id="xCNcYc3M7SHky_gv-s5D-33" value="" style="endArrow=diamondThin;endFill=0;endSize=24;html=1;rounded=0;fontSize=12;curved=1;entryX=1;entryY=0.5;entryDx=0;entryDy=0;exitX=0;exitY=1;exitDx=0;exitDy=0;" edge="1" parent="1" source="node1" target="node0">
          <mxGeometry width="160" relative="1" as="geometry">
            <mxPoint x="-1030" y="750" as="sourcePoint" />
            <mxPoint x="-870" y="750" as="targetPoint" />
          </mxGeometry>
        </mxCell>
        <mxCell id="xCNcYc3M7SHky_gv-s5D-34" value="" style="endArrow=diamondThin;endFill=0;endSize=24;html=1;rounded=0;fontSize=12;curved=1;entryX=0;entryY=0.25;entryDx=0;entryDy=0;exitX=1;exitY=0.5;exitDx=0;exitDy=0;" edge="1" parent="1" source="node2" target="node1">
          <mxGeometry width="160" relative="1" as="geometry">
            <mxPoint x="-630" y="510" as="sourcePoint" />
            <mxPoint x="-470" y="510" as="targetPoint" />
          </mxGeometry>
        </mxCell>
        <mxCell id="xCNcYc3M7SHky_gv-s5D-35" value="" style="endArrow=diamondThin;endFill=0;endSize=24;html=1;rounded=0;fontSize=12;curved=1;entryX=0;entryY=0;entryDx=0;entryDy=0;exitX=1;exitY=0.5;exitDx=0;exitDy=0;" edge="1" parent="1" source="node8" target="node1">
          <mxGeometry width="160" relative="1" as="geometry">
            <mxPoint x="-580" y="390" as="sourcePoint" />
            <mxPoint x="-420" y="390" as="targetPoint" />
          </mxGeometry>
        </mxCell>
        <mxCell id="xCNcYc3M7SHky_gv-s5D-36" value="" style="endArrow=diamondThin;endFill=0;endSize=24;html=1;rounded=0;fontSize=12;curved=1;entryX=0.25;entryY=1;entryDx=0;entryDy=0;exitX=1;exitY=0.75;exitDx=0;exitDy=0;" edge="1" parent="1" source="node3" target="node1">
          <mxGeometry width="160" relative="1" as="geometry">
            <mxPoint x="-860" y="920" as="sourcePoint" />
            <mxPoint x="-700" y="920" as="targetPoint" />
          </mxGeometry>
        </mxCell>
        <mxCell id="xCNcYc3M7SHky_gv-s5D-37" value="Use" style="endArrow=open;endSize=12;dashed=1;html=1;rounded=0;fontSize=12;curved=1;exitX=0.25;exitY=0;exitDx=0;exitDy=0;entryX=0.75;entryY=1;entryDx=0;entryDy=0;" edge="1" parent="1" source="node1" target="node7">
          <mxGeometry width="160" relative="1" as="geometry">
            <mxPoint x="-180" y="340" as="sourcePoint" />
            <mxPoint x="-20" y="340" as="targetPoint" />
          </mxGeometry>
        </mxCell>
        <mxCell id="xCNcYc3M7SHky_gv-s5D-38" value="Use" style="endArrow=open;endSize=12;dashed=1;html=1;rounded=0;fontSize=12;curved=1;exitX=0.5;exitY=0;exitDx=0;exitDy=0;entryX=1;entryY=1;entryDx=0;entryDy=0;" edge="1" parent="1" source="node1" target="node5">
          <mxGeometry width="160" relative="1" as="geometry">
            <mxPoint x="-270" y="410" as="sourcePoint" />
            <mxPoint x="-280" y="90" as="targetPoint" />
            <Array as="points">
              <mxPoint x="-190" y="-20" />
            </Array>
          </mxGeometry>
        </mxCell>
        <mxCell id="xCNcYc3M7SHky_gv-s5D-39" value="Use" style="endArrow=open;endSize=12;dashed=1;html=1;rounded=0;fontSize=12;curved=1;exitX=0;exitY=0.5;exitDx=0;exitDy=0;entryX=1;entryY=0.75;entryDx=0;entryDy=0;" edge="1" parent="1" source="node1" target="node2">
          <mxGeometry width="160" relative="1" as="geometry">
            <mxPoint x="-610" y="570" as="sourcePoint" />
            <mxPoint x="-450" y="570" as="targetPoint" />
          </mxGeometry>
        </mxCell>
        <mxCell id="xCNcYc3M7SHky_gv-s5D-40" value="Use" style="endArrow=open;endSize=12;dashed=1;html=1;rounded=0;fontSize=12;curved=1;exitX=0;exitY=0;exitDx=0;exitDy=0;entryX=1;entryY=0.25;entryDx=0;entryDy=0;" edge="1" parent="1" source="node1" target="node8">
          <mxGeometry width="160" relative="1" as="geometry">
            <mxPoint x="-414" y="310" as="sourcePoint" />
            <mxPoint x="-600" y="327" as="targetPoint" />
          </mxGeometry>
        </mxCell>
        <mxCell id="xCNcYc3M7SHky_gv-s5D-41" value="Use" style="endArrow=open;endSize=12;dashed=1;html=1;rounded=0;fontSize=12;curved=1;exitX=0;exitY=0;exitDx=0;exitDy=0;entryX=0.75;entryY=1;entryDx=0;entryDy=0;" edge="1" parent="1" source="node1" target="node4">
          <mxGeometry width="160" relative="1" as="geometry">
            <mxPoint x="-444" y="270" as="sourcePoint" />
            <mxPoint x="-630" y="287" as="targetPoint" />
          </mxGeometry>
        </mxCell>
        <mxCell id="xCNcYc3M7SHky_gv-s5D-42" value="Use" style="endArrow=open;endSize=12;dashed=1;html=1;rounded=0;fontSize=12;curved=1;exitX=0;exitY=0;exitDx=0;exitDy=0;entryX=0.75;entryY=1;entryDx=0;entryDy=0;" edge="1" parent="1" source="node1" target="node6">
          <mxGeometry width="160" relative="1" as="geometry">
            <mxPoint x="-404" y="260" as="sourcePoint" />
            <mxPoint x="-590" y="277" as="targetPoint" />
          </mxGeometry>
        </mxCell>
      </root>
    </mxGraphModel>
  </diagram>
</mxfile>
